HIERARCHY
ROOT joint_Root
{
	OFFSET 0.0 0.0 0.0
	CHANNELS 6 Xposition Yposition Zposition Zrotation Xrotation Yrotation 
	JOINT Hips
	{
		OFFSET -0.726466 93.3139 -2.00062
		CHANNELS 6 Xposition Yposition Zposition Zrotation Xrotation Yrotation 
		JOINT Spine
		{
			OFFSET 15.7357 0.0 0.0
			CHANNELS 6 Xposition Yposition Zposition Zrotation Xrotation Yrotation 
			JOINT Chest
			{
				OFFSET 8.98455 -0.406207 0.0
				CHANNELS 6 Xposition Yposition Zposition Zrotation Xrotation Yrotation 
				JOINT Neck
				{
					OFFSET 16.3773 0.0 0.0
					CHANNELS 6 Xposition Yposition Zposition Zrotation Xrotation Yrotation 
					JOINT Head
					{
						OFFSET 6.45672 0.0 0.0
						CHANNELS 6 Xposition Yposition Zposition Zrotation Xrotation Yrotation 
						End Site
						{
							OFFSET 0.0 0.0 0.0
						}
					}
				}
				JOINT Shoulder_L
				{
					OFFSET 12.9942 -0.242716 4.98039
					CHANNELS 6 Xposition Yposition Zposition Zrotation Xrotation Yrotation 
					JOINT UpperArm_L
					{
						OFFSET 5.34809 0.0 0.0
						CHANNELS 6 Xposition Yposition Zposition Zrotation Xrotation Yrotation 
						JOINT LowerArm_L
						{
							OFFSET 24.3286 1.87007e-05 0.0
							CHANNELS 6 Xposition Yposition Zposition Zrotation Xrotation Yrotation 
							JOINT Hand_L
							{
								OFFSET 22.2916 0.0 0.0
								CHANNELS 6 Xposition Yposition Zposition Zrotation Xrotation Yrotation 
								End Site
								{
									OFFSET 0.0 0.0 0.0
								}
							}
						}
					}
				}
				JOINT Shoulder_R
				{
					OFFSET 12.9945 -0.242716 -4.98039
					CHANNELS 6 Xposition Yposition Zposition Zrotation Xrotation Yrotation 
					JOINT UpperArm_R
					{
						OFFSET -5.34813 0.0 0.0
						CHANNELS 6 Xposition Yposition Zposition Zrotation Xrotation Yrotation 
						JOINT LowerArm_R
						{
							OFFSET -24.3289 0.000322201 0.0
							CHANNELS 6 Xposition Yposition Zposition Zrotation Xrotation Yrotation 
							JOINT Hand_R
							{
								OFFSET -22.2915 -0.000108084 0.0
								CHANNELS 6 Xposition Yposition Zposition Zrotation Xrotation Yrotation 
								End Site
								{
									OFFSET 0.0 0.0 0.0
								}
							}
						}
					}
				}
			}
		}
		JOINT UpperLeg_L
		{
			OFFSET -2.19248 -6.46944 0.0
			CHANNELS 6 Xposition Yposition Zposition Zrotation Xrotation Yrotation 
			JOINT LowerLeg_L
			{
				OFFSET 39.0811 0.0 -1.23785e-05
				CHANNELS 6 Xposition Yposition Zposition Zrotation Xrotation Yrotation 
				JOINT Foot_L
				{
					OFFSET 40.9854 0.0 -1.26872e-05
					CHANNELS 6 Xposition Yposition Zposition Zrotation Xrotation Yrotation 
					JOINT Toes_L
					{
						OFFSET 11.7543 0.0 0.0
						CHANNELS 6 Xposition Yposition Zposition Zrotation Xrotation Yrotation 
						End Site
						{
							OFFSET 0.0 0.0 0.0
						}
					}
				}
			}
		}
		JOINT UpperLeg_R
		{
			OFFSET -2.19251 6.46944 0.0
			CHANNELS 6 Xposition Yposition Zposition Zrotation Xrotation Yrotation 
			JOINT LowerLeg_R
			{
				OFFSET -39.0811 -0.00228153 -0.0401928
				CHANNELS 6 Xposition Yposition Zposition Zrotation Xrotation Yrotation 
				JOINT Foot_R
				{
					OFFSET -40.9854 0.0 0.0
					CHANNELS 6 Xposition Yposition Zposition Zrotation Xrotation Yrotation 
					JOINT Toes_R
					{
						OFFSET -11.7543 0.0 0.0
						CHANNELS 6 Xposition Yposition Zposition Zrotation Xrotation Yrotation 
						End Site
						{
							OFFSET 0.0 0.0 0.0
						}
					}
				}
			}
		}
	}
}
MOTION
Frames:	6
Frame Time:	0.0333333
0.000000 0.000000 0.000000 0.000000 0.000000 -0.000000 -1.488930 92.847100 -0.527240 89.106800 -1.974190 2.592120 15.735700 0.000005 -0.000001 94.148400 86.499800 -94.003200 8.984550 -0.406207 -0.000000 -0.784546 0.495474 0.293733 16.377300 -0.000001 -0.000001 4.533850 -2.103590 2.485180 6.456720 -0.000001 -0.000000 9.367330 -1.906210 -3.509390 12.994200 -0.242716 4.980390 -90.819100 2.456400 -71.552900 5.348090 -0.000007 -0.000001 -68.400400 34.959000 -11.924900 24.328600 0.000019 0.000005 4.157250 10.130900 -22.450000 22.291600 -0.000001 0.000005 3.150530 5.478390 -5.688150 12.994500 -0.242716 -4.980390 87.558400 7.842040 -72.645600 -5.348130 -0.000001 -0.000004 -64.483400 42.033600 -10.704200 -24.328900 0.000322 -0.000009 3.311610 9.074800 -20.152100 -22.291500 -0.000108 -0.000004 6.364950 5.358550 -1.635480 -2.192480 -6.469440 -0.000000 -176.320000 -7.011250 -1.413730 39.081100 -0.000007 -0.000012 -0.063110 0.200797 17.447700 40.985400 -0.000006 -0.000013 -0.658422 4.042500 -63.585500 11.754300 -0.000000 0.000003 -0.000001 -0.000020 -16.578300 -2.192510 6.469440 -0.000001 179.917000 9.213970 -179.893000 -39.081100 -0.002282 -0.040193 -0.053196 0.206234 15.327600 -40.985400 0.000008 0.000006 1.752990 6.208030 -63.266300 -11.754300 -0.000006 -0.000006 -0.006096 -0.071708 -19.491600
0.000000 0.000000 0.000000 0.000000 0.000000 -0.000000 -1.518760 92.862200 -0.557181 89.115900 -1.904640 2.470460 15.735700 0.000005 -0.000001 94.332500 86.498300 -94.130700 8.984550 -0.406207 -0.000000 -0.783516 0.513910 0.406988 16.377300 -0.000001 -0.000001 4.690920 -2.094390 2.518920 6.456720 -0.000001 -0.000000 8.470210 -1.841970 -3.708300 12.994200 -0.242716 4.980390 -90.965600 2.863780 -71.359200 5.348090 -0.000007 -0.000001 -67.916700 32.682100 -11.951200 24.328600 0.000019 0.000005 4.916320 10.583000 -25.098300 22.291600 -0.000001 0.000005 3.003970 5.490640 -6.160690 12.994500 -0.242716 -4.980390 87.540800 7.786790 -72.412200 -5.348130 -0.000001 -0.000004 -64.399100 42.023800 -10.868700 -24.328900 0.000322 -0.000009 3.305580 9.026880 -20.215700 -22.291500 -0.000108 -0.000004 6.382700 5.356100 -1.561190 -2.192480 -6.469440 -0.000000 -176.319000 -7.038300 -1.502930 39.081100 -0.000007 -0.000012 -0.062182 0.199402 17.319600 40.985400 -0.000006 -0.000013 -0.669489 4.130630 -63.490400 11.754300 -0.000000 0.000003 -0.000002 -0.000030 -16.578700 -2.192510 6.469440 -0.000001 179.951000 9.275100 -179.983000 -39.081100 -0.002282 -0.040193 -0.052707 0.206101 15.210600 -40.985400 0.000008 0.000006 1.773360 6.226150 -63.187900 -11.754300 -0.000006 -0.000006 -0.006025 -0.071061 -19.465200
0.000000 0.000000 0.000000 0.000000 0.000000 -0.000000 -1.580550 92.884900 -0.633946 89.135500 -1.712810 2.306240 15.735700 0.000005 -0.000001 94.302900 86.490000 -94.054400 8.984550 -0.406207 -0.000000 -0.766967 0.508083 0.500287 16.377300 -0.000001 -0.000001 4.764940 -2.160370 2.527320 6.456720 -0.000001 -0.000000 7.224700 -1.912230 -3.858920 12.994200 -0.242716 4.980390 -91.164000 3.373250 -70.950500 5.348090 -0.000007 -0.000001 -66.318400 30.038300 -12.630100 24.328600 0.000019 0.000005 4.512750 7.919970 -29.818500 22.291600 -0.000001 0.000005 3.828270 5.502100 -6.616000 12.994500 -0.242716 -4.980390 87.505700 7.783990 -72.170300 -5.348130 -0.000001 -0.000004 -64.268000 42.008800 -10.995500 -24.328900 0.000322 -0.000009 3.279580 8.887600 -20.355600 -22.291500 -0.000108 -0.000004 6.379880 5.357470 -1.602720 -2.192480 -6.469440 -0.000000 -176.324000 -6.905390 -1.662340 39.081100 -0.000007 -0.000012 -0.061530 0.199483 17.142000 40.985400 -0.000006 -0.000013 -0.707755 4.201710 -63.325700 11.754300 -0.000000 0.000003 -0.000002 -0.000023 -16.578400 -2.192510 6.469440 -0.000001 -179.995000 9.465380 179.902000 -39.081100 -0.002282 -0.040193 -0.051547 0.204293 15.035800 -40.985400 0.000008 0.000006 1.804380 6.184660 -63.071300 -11.754300 -0.000006 -0.000006 -0.006328 -0.073782 -19.576200
0.000000 0.000000 0.000000 0.000000 0.000000 -0.000000 -1.679750 92.907500 -0.723822 89.144000 -1.329610 2.132210 15.735700 0.000005 -0.000001 94.408400 86.497000 -94.125900 8.984550 -0.406207 -0.000000 -0.781888 0.517349 0.568276 16.377300 -0.000001 -0.000001 4.768510 -2.301940 2.459770 6.456720 -0.000001 -0.000000 6.010080 -2.190760 -3.814760 12.994200 -0.242716 4.980390 -91.313400 3.722250 -70.548700 5.348090 -0.000007 -0.000001 -63.881200 26.922400 -14.443700 24.328600 0.000019 0.000005 3.993180 5.533140 -35.915500 22.291600 -0.000001 0.000005 4.871350 5.523280 -7.496530 12.994500 -0.242716 -4.980390 87.498500 7.757760 -72.066100 -5.348130 -0.000001 -0.000004 -64.368200 41.878700 -10.799900 -24.328900 0.000322 -0.000009 3.283650 8.807240 -20.547900 -22.291500 -0.000108 -0.000004 6.330860 5.357010 -1.588620 -2.192480 -6.469440 -0.000000 -176.292000 -6.746010 -1.890840 39.081100 -0.000007 -0.000012 -0.061443 0.200977 16.999400 40.985400 -0.000006 -0.000013 -0.749914 4.389550 -63.140800 11.754300 -0.000000 0.000003 -0.000002 -0.000032 -16.578800 -2.192510 6.469440 -0.000001 -179.896000 9.813820 179.781000 -39.081100 -0.002282 -0.040193 -0.050410 0.202751 14.845200 -40.985400 0.000008 0.000006 1.861360 6.092680 -62.948100 -11.754300 -0.000006 -0.000006 -0.006148 -0.072172 -19.510500
0.000000 0.000000 0.000000 0.000000 0.000000 -0.000000 -1.811340 92.933800 -0.822815 89.211500 -0.840122 2.050380 15.735700 0.000005 -0.000001 94.981100 86.491300 -94.699600 8.984550 -0.406207 -0.000000 -0.776550 0.588180 0.566721 16.377300 -0.000001 -0.000001 4.666030 -2.523970 2.364520 6.456720 -0.000001 -0.000000 5.167760 -2.608430 -3.705800 12.994200 -0.242716 4.980390 -91.340900 3.757370 -70.344100 5.348090 -0.000007 -0.000001 -61.087500 23.246400 -17.479200 24.328600 0.000019 0.000005 4.597350 4.982360 -42.791000 22.291600 -0.000001 0.000005 6.141440 5.541290 -8.295880 12.994500 -0.242716 -4.980390 87.512400 7.722220 -72.083000 -5.348130 -0.000001 -0.000004 -64.524600 41.927800 -10.518900 -24.328900 0.000322 -0.000009 3.268160 8.777210 -20.522600 -22.291500 -0.000108 -0.000004 6.325580 5.361030 -1.710990 -2.192480 -6.469440 -0.000000 -176.286000 -6.465740 -1.990040 39.081100 -0.000007 -0.000012 -0.059921 0.199143 16.746200 40.985400 -0.000006 -0.000013 -0.823676 4.590300 -62.887300 11.754300 -0.000000 0.000003 -0.000002 -0.000031 -16.578700 -2.192510 6.469440 -0.000001 -179.841000 10.068600 179.750000 -39.081100 -0.002282 -0.040193 -0.049392 0.201429 14.667900 -40.985400 0.000008 0.000006 1.915640 5.861880 -62.838000 -11.754300 -0.000006 -0.000006 -0.006255 -0.073135 -19.549800
0.000000 0.000000 0.000000 0.000000 0.000000 -0.000000 -1.968930 92.944200 -0.927581 89.254800 -0.273398 1.983790 15.735700 0.000005 -0.000001 95.436200 86.509400 -95.155700 8.984550 -0.406207 -0.000000 -0.817799 0.640228 0.565271 16.377300 -0.000001 -0.000001 4.435060 -2.723080 2.215870 6.456720 -0.000001 -0.000000 4.847990 -2.966770 -3.586960 12.994200 -0.242716 4.980390 -91.267200 3.565440 -70.420500 5.348090 -0.000007 -0.000001 -58.587600 18.542600 -20.986800 24.328600 0.000019 0.000005 5.925280 4.900270 -50.537300 22.291600 -0.000001 0.000005 7.919350 5.556460 -9.005030 12.994500 -0.242716 -4.980390 87.528600 7.716390 -72.180000 -5.348130 -0.000001 -0.000004 -64.543700 42.221100 -10.341400 -24.328900 0.000322 -0.000009 3.219960 8.758470 -20.283600 -22.291500 -0.000108 -0.000004 6.230410 5.360510 -1.695210 -2.192480 -6.469440 -0.000000 -176.229000 -6.227850 -2.170270 39.081100 -0.000007 -0.000012 -0.059642 0.199235 16.665200 40.985400 -0.000006 -0.000013 -0.882195 4.940970 -62.710700 11.754300 -0.000000 0.000003 -0.000001 -0.000021 -16.578300 -2.192510 6.469440 -0.000001 -179.755000 10.429300 179.666000 -39.081100 -0.002282 -0.040193 -0.048629 0.199085 14.627700 -40.985400 0.000008 0.000006 2.000070 5.673790 -62.801200 -11.754300 -0.000006 -0.000006 -0.006349 -0.073975 -19.584100
